<svg width="16" height="16" viewBox="0 0 16 16" fill="none" xmlns="http://www.w3.org/2000/svg">
<g id="u1F64B_u1F3FB_u200D_u2640,gesture,hand,happy,person raising hand" clip-path="url(#clip0_80_3708)">
<path id="Vector" d="M6.1864 7.66561C6.1864 7.66561 6.96 2.04921 9.8896 1.49961C10.251 1.22364 10.6781 1.0468 11.1288 0.986607C11.5795 0.926413 12.0381 0.984946 12.4592 1.15641C13.1654 1.41991 13.7882 1.8674 14.2633 2.45254C14.7384 3.03768 15.0484 3.73919 15.1612 4.48441C15.2553 6.12019 15.0792 7.7603 14.64 9.33881C14.6092 9.45719 14.5491 9.56591 14.4652 9.65491C14.3813 9.74391 14.2764 9.81032 14.16 9.84801C13.6464 10.0176 12.52 10.128 10.1308 9.57281C6.2092 8.66481 6.1864 7.66561 6.1864 7.66561Z" fill="#333333"/>
<path id="Vector_2" d="M6.33078 3.60476C6.27656 3.56901 6.21583 3.54431 6.15205 3.53206C6.08827 3.51981 6.02271 3.52025 5.9591 3.53337C5.8955 3.54648 5.8351 3.57201 5.78137 3.60849C5.72764 3.64497 5.68164 3.69168 5.64598 3.74596L5.10838 4.32396L4.97318 3.66836L4.65318 1.78836C4.6456 1.7323 4.62682 1.67834 4.59795 1.62969C4.56908 1.58104 4.53071 1.5387 4.48514 1.50519C4.43956 1.47167 4.38771 1.44768 4.33266 1.43462C4.27762 1.42157 4.22051 1.41973 4.16474 1.4292C4.10897 1.43868 4.05568 1.45929 4.00803 1.48979C3.96039 1.5203 3.91938 1.56008 3.88743 1.60677C3.85549 1.65346 3.83327 1.7061 3.82209 1.76155C3.81091 1.81701 3.81101 1.87414 3.82238 1.92956L4.09758 3.54716L3.88838 3.59036L3.43998 1.74436C3.41346 1.63573 3.34487 1.54208 3.2493 1.48402C3.15373 1.42596 3.03901 1.40824 2.93038 1.43476C2.82175 1.46128 2.7281 1.52987 2.67004 1.62544C2.61198 1.72101 2.59426 1.83573 2.62078 1.94436L3.06478 3.77116L2.89358 3.85516L2.29358 2.33876C2.27363 2.28664 2.24353 2.23899 2.20503 2.19859C2.16653 2.15819 2.12039 2.12583 2.06928 2.1034C2.01818 2.08097 1.96313 2.06891 1.90733 2.06791C1.85153 2.06692 1.79608 2.07702 1.74421 2.09762C1.69235 2.11822 1.64508 2.14891 1.60517 2.18792C1.56525 2.22692 1.53348 2.27347 1.51169 2.32485C1.4899 2.37623 1.47853 2.43142 1.47823 2.48723C1.47794 2.54304 1.48873 2.59835 1.50998 2.64996L2.13678 4.22876L1.92718 4.33196L1.39998 3.23716C1.37616 3.187 1.34267 3.14204 1.30142 3.10486C1.26018 3.06768 1.21199 3.03901 1.15964 3.02051C1.10728 3.002 1.05179 2.99402 0.99634 2.99702C0.940892 3.00002 0.886583 3.01395 0.836532 3.038C0.786482 3.06205 0.741675 3.09575 0.704686 3.13717C0.667697 3.17858 0.639254 3.2269 0.62099 3.27934C0.602726 3.33178 0.595002 3.38731 0.598261 3.44275C0.601519 3.49818 0.615697 3.55242 0.639979 3.60236L1.62878 5.66116L1.63198 5.65876C1.76009 6.01873 1.98606 6.33582 2.2845 6.57441C2.58293 6.81299 2.942 6.96361 3.32134 7.00932C3.70067 7.05504 4.08524 6.99404 4.43182 6.83318C4.77839 6.67232 5.07322 6.41799 5.28318 6.09876L6.47238 4.29116C6.50836 4.23686 6.53324 4.17598 6.5456 4.11202C6.55796 4.04807 6.55754 3.9823 6.54438 3.9185C6.53122 3.85471 6.50557 3.79414 6.46891 3.7403C6.43226 3.68645 6.38531 3.64039 6.33078 3.60476Z" fill="#FFCBA7"/>
<path id="Vector_3" d="M5.67318 12.504C4.54799 11.9077 3.58889 11.0409 2.88235 9.98146C2.17581 8.92206 1.74404 7.70348 1.62598 6.43557C1.62463 6.40794 1.62887 6.38033 1.63845 6.35438C1.64803 6.32843 1.66274 6.30467 1.68171 6.28454C1.70068 6.26442 1.72352 6.24832 1.74886 6.23723C1.7742 6.22613 1.80152 6.22026 1.82918 6.21997L5.40998 6.13437C5.46193 6.1328 5.51255 6.151 5.5516 6.1853C5.59065 6.2196 5.61523 6.26745 5.62038 6.31917C5.69118 7.02757 6.06278 9.21197 8.44998 9.57357L8.72558 9.59957C12.7188 9.67677 15.3276 12.012 15.3276 14.9936H5.95998C5.91453 14.9936 5.87092 14.9756 5.83863 14.9436C5.80635 14.9117 5.788 14.8682 5.78758 14.8228L5.76918 12.654C5.76857 12.6225 5.75927 12.5919 5.74233 12.5654C5.72539 12.539 5.70146 12.5177 5.67318 12.504Z" fill="#482EC4"/>
<path id="Vector_4" d="M9.45789 8.91895L11.0874 9.20003L10.9386 10.0625C10.9014 10.2786 10.7798 10.471 10.6006 10.5975C10.4215 10.7239 10.1994 10.774 9.98334 10.7367C9.76725 10.6994 9.57482 10.5779 9.44837 10.3987C9.32193 10.2195 9.27184 9.9975 9.30911 9.78141L9.45789 8.91895Z" fill="#FFCBA7"/>
<path id="Vector_5" d="M12.5084 4.92956C11.5085 4.50953 10.6864 3.75404 10.1836 2.79316C10.1768 2.78047 10.1665 2.76998 10.154 2.7629C10.1414 2.75581 10.1272 2.75243 10.1128 2.75314C10.0984 2.75386 10.0846 2.75863 10.0728 2.76692C10.061 2.77521 10.0519 2.78666 10.0464 2.79996C9.72503 3.55417 9.16988 4.18518 8.46275 4.59996C8.33659 4.66358 8.21888 4.74273 8.11235 4.83556C7.97101 4.95613 7.8556 5.10411 7.7731 5.27056C7.6906 5.43701 7.64271 5.61847 7.63235 5.80396C7.57318 6.59071 7.79399 7.37306 8.25577 8.01277C8.71755 8.65249 9.39058 9.1084 10.156 9.29996C10.8784 9.45586 11.6321 9.36693 12.2984 9.04719C12.9647 8.72744 13.5056 8.19506 13.836 7.53396C14.2652 6.51116 13.8324 5.45116 12.5084 4.92956Z" fill="#FFCBA7"/>
<path id="Vector_6" d="M10.3516 5.67717C10.4064 5.44021 10.2907 5.21104 10.0932 5.16529C9.8956 5.11954 9.69096 5.27455 9.63609 5.5115C9.58122 5.74846 9.69691 5.97764 9.89448 6.02338C10.092 6.06913 10.2967 5.91413 10.3516 5.67717Z" fill="black"/>
<path id="Vector_7" d="M12.2399 6.11406C12.2947 5.8771 12.179 5.64793 11.9815 5.60218C11.7839 5.55643 11.5793 5.71144 11.5244 5.94839C11.4695 6.18535 11.5852 6.41453 11.7828 6.46027C11.9804 6.50602 12.185 6.35102 12.2399 6.11406Z" fill="black"/>
<path id="Vector_8" d="M10.9488 7.81359C10.9673 7.81796 10.9846 7.82656 10.9992 7.8387C11.0139 7.85084 11.0255 7.8662 11.0333 7.88358C11.041 7.90096 11.0446 7.91989 11.0438 7.93891C11.0431 7.95792 11.0379 7.97649 11.0288 7.99319C10.9673 8.10674 10.8702 8.19697 10.7525 8.25002C10.6348 8.30306 10.5029 8.316 10.3771 8.28684C10.2513 8.25767 10.1386 8.18802 10.0562 8.08858C9.97387 7.98914 9.92642 7.86541 9.92118 7.73639C9.92021 7.71743 9.92365 7.6985 9.93122 7.6811C9.9388 7.66369 9.9503 7.64828 9.96484 7.63607C9.97937 7.62386 9.99654 7.61519 10.015 7.61073C10.0334 7.60628 10.0527 7.60616 10.0712 7.61039L10.9488 7.81359Z" fill="#5C2F17"/>
</g>
<defs>
<clipPath id="clip0_80_3708">
<rect width="16" height="16" fill="white"/>
</clipPath>
</defs>
</svg>
