<svg xmlns="http://www.w3.org/2000/svg" width="32" height="32" viewBox="0 0 32 32" fill="none">
  <path d="M5.4 32c0-6.3 4.8-10.9 10.6-10.9S26.6 25.7 26.6 32Z" fill="#AEB6C2"/>
  <rect x="13.4" y="17.4" width="5.2" height="6" rx="2.6" fill="#EFBE93"/>
  <path d="M10.6 24 5 10.6" stroke="#F7CDA6" stroke-width="3.5" stroke-linecap="round"/>
  <path d="M11 24.4 8.9 19.3" stroke="#AEB6C2" stroke-width="4" stroke-linecap="round"/>
  
  <circle cx="9.1" cy="14" r="1.35" fill="#EFBE93"/>
  <circle cx="22.9" cy="14" r="1.35" fill="#EFBE93"/>
  <circle cx="16" cy="13.6" r="7" fill="#F7CDA6"/>
  <path d="M8.9 13.7C8.9 8.9 12 5.7 16 5.7s7.1 3.2 7.1 8c-1.5-2.1-3.8-3.3-7.1-3.3S10.4 11.6 8.9 13.7Z" fill="#2C2A29"/>
  <circle cx="12.2" cy="16.2" r="1.15" fill="#F4A199" opacity=".55"/>
  <circle cx="19.8" cy="16.2" r="1.15" fill="#F4A199" opacity=".55"/>
  <circle cx="13.3" cy="13.9" r="0.95" fill="#3A2B28"/>
  <circle cx="18.7" cy="13.9" r="0.95" fill="#3A2B28"/>
  <path d="M13.8 16.5c.9 1 3.5 1 4.4 0" stroke="#3A2B28" stroke-width="1" stroke-linecap="round"/>
  <circle cx="4.9" cy="9.9" r="3.1" fill="#F7CDA6"/>
  <circle cx="2.5" cy="11.3" r="1.25" fill="#F7CDA6"/>
</svg>
