<svg width="16" height="16" viewBox="0 0 16 16" fill="none" xmlns="http://www.w3.org/2000/svg">
<g id="u1F64B_u1F3FC_u200D_u2642,gesture,hand,happy,person raising hand" clip-path="url(#clip0_80_3708)">
<path id="Vector" d="M6.33078 3.60476C6.27656 3.56901 6.21583 3.54431 6.15205 3.53206C6.08827 3.51981 6.02271 3.52025 5.9591 3.53337C5.8955 3.54648 5.8351 3.57201 5.78137 3.60849C5.72764 3.64497 5.68164 3.69168 5.64598 3.74596L5.10838 4.32396L4.97318 3.66836L4.65318 1.78836C4.6456 1.7323 4.62682 1.67834 4.59795 1.62969C4.56908 1.58104 4.53071 1.5387 4.48514 1.50519C4.43956 1.47167 4.38771 1.44768 4.33266 1.43462C4.27762 1.42157 4.22051 1.41973 4.16474 1.4292C4.10897 1.43868 4.05568 1.45929 4.00803 1.48979C3.96039 1.5203 3.91938 1.56008 3.88743 1.60677C3.85549 1.65346 3.83327 1.7061 3.82209 1.76155C3.81091 1.81701 3.81101 1.87414 3.82238 1.92956L4.09758 3.54716L3.88838 3.59036L3.43998 1.74436C3.41346 1.63573 3.34487 1.54208 3.2493 1.48402C3.15373 1.42596 3.03901 1.40824 2.93038 1.43476C2.82175 1.46128 2.7281 1.52987 2.67004 1.62544C2.61198 1.72101 2.59426 1.83573 2.62078 1.94436L3.06478 3.77116L2.89358 3.85516L2.29358 2.33876C2.27363 2.28664 2.24353 2.23899 2.20503 2.19859C2.16653 2.15819 2.12039 2.12583 2.06928 2.1034C2.01818 2.08097 1.96313 2.06891 1.90733 2.06791C1.85153 2.06692 1.79608 2.07702 1.74421 2.09762C1.69235 2.11822 1.64508 2.14891 1.60517 2.18792C1.56525 2.22692 1.53348 2.27347 1.51169 2.32485C1.4899 2.37623 1.47853 2.43142 1.47823 2.48723C1.47794 2.54304 1.48873 2.59835 1.50998 2.64996L2.13678 4.22876L1.92718 4.33196L1.39998 3.23716C1.37616 3.187 1.34267 3.14204 1.30142 3.10486C1.26018 3.06768 1.21199 3.03901 1.15964 3.02051C1.10728 3.002 1.05179 2.99402 0.99634 2.99702C0.940892 3.00002 0.886583 3.01395 0.836532 3.038C0.786482 3.06205 0.741675 3.09575 0.704686 3.13717C0.667697 3.17858 0.639254 3.2269 0.62099 3.27934C0.602726 3.33178 0.595002 3.38731 0.598261 3.44275C0.601519 3.49818 0.615697 3.55242 0.639979 3.60236L1.62878 5.66116L1.63198 5.65876C1.76009 6.01873 1.98606 6.33582 2.2845 6.57441C2.58293 6.81299 2.942 6.96361 3.32134 7.00932C3.70067 7.05504 4.08524 6.99404 4.43182 6.83318C4.77839 6.67232 5.07322 6.41799 5.28318 6.09876L6.47238 4.29116C6.50836 4.23686 6.53324 4.17598 6.5456 4.11202C6.55796 4.04807 6.55754 3.9823 6.54438 3.9185C6.53122 3.85471 6.50557 3.79414 6.46891 3.7403C6.43226 3.68645 6.38531 3.64039 6.33078 3.60476Z" fill="#FFB481"/>
<path id="Vector_2" d="M5.67318 12.504C4.54799 11.9077 3.58889 11.0409 2.88235 9.98146C2.17581 8.92206 1.74404 7.70348 1.62598 6.43557C1.62463 6.40794 1.62887 6.38033 1.63845 6.35438C1.64803 6.32843 1.66274 6.30467 1.68171 6.28454C1.70068 6.26442 1.72352 6.24832 1.74886 6.23723C1.7742 6.22613 1.80152 6.22026 1.82918 6.21997L5.40998 6.13437C5.46193 6.1328 5.51255 6.151 5.5516 6.1853C5.59065 6.2196 5.61523 6.26745 5.62038 6.31917C5.69118 7.02757 6.06278 9.21197 8.44998 9.57357L8.72558 9.59957C12.7188 9.67677 15.3276 12.012 15.3276 14.9936H5.95998C5.91453 14.9936 5.87092 14.9756 5.83863 14.9436C5.80635 14.9117 5.788 14.8682 5.78758 14.8228L5.76918 12.654C5.76857 12.6225 5.75927 12.5919 5.74233 12.5654C5.72539 12.539 5.70146 12.5177 5.67318 12.504Z" fill="#3E5AF3"/>
<g id="Group">
<path id="Vector_3" d="M10.8112 9.60754C12.7111 9.60754 14.2512 8.0674 14.2512 6.16754C14.2512 4.26768 12.7111 2.72754 10.8112 2.72754C8.91136 2.72754 7.37122 4.26768 7.37122 6.16754C7.37122 8.0674 8.91136 9.60754 10.8112 9.60754Z" fill="#FFB481"/>
<path id="Vector_4" d="M9.06708 5.9C9.21364 5.20188 8.729 4.50927 7.98462 4.353C7.24024 4.19673 6.518 4.63598 6.37144 5.3341C6.22489 6.03221 6.70952 6.72483 7.4539 6.88109C8.19828 7.03736 8.92053 6.59811 9.06708 5.9Z" fill="#FFB481"/>
<path id="Vector_5" d="M15.2121 7.19016C15.3587 6.49204 14.874 5.79943 14.1296 5.64316C13.3853 5.48689 12.663 5.92615 12.5165 6.62426C12.3699 7.32237 12.8545 8.01499 13.5989 8.17126C14.3433 8.32752 15.0655 7.88827 15.2121 7.19016Z" fill="#FFB481"/>
</g>
<path id="Vector_6" d="M14.8212 6.00002C15.0545 5.00094 14.8915 3.95032 14.3664 3.0689C13.8413 2.18749 12.9951 1.54391 12.0054 1.27339C11.0158 1.00287 9.95977 1.12646 9.05933 1.61821C8.1589 2.10996 7.48412 2.93157 7.17677 3.91042C7.12148 4.08819 7.07845 4.26955 7.04797 4.45322C7.04797 4.45322 7.39357 4.44402 7.55277 5.14122L10.2952 3.12242C10.2952 3.12242 12.5352 5.85362 14.3412 6.10882C14.3868 6.11349 14.4328 6.11079 14.4776 6.10082C14.61 6.05882 14.736 5.95562 14.8212 6.00002Z" fill="#FFDA86"/>
<path id="Vector_7" d="M10.2578 5.8812C10.3076 5.64382 10.1877 5.41771 9.98983 5.37618C9.79201 5.33465 9.59124 5.49342 9.54141 5.73081C9.49157 5.9682 9.61154 6.19431 9.80936 6.23584C10.0072 6.27737 10.208 6.11859 10.2578 5.8812Z" fill="black"/>
<path id="Vector_8" d="M12.1496 6.27842C12.1995 6.04103 12.0795 5.81493 11.8817 5.7734C11.6839 5.73187 11.4831 5.89064 11.4333 6.12803C11.3834 6.36542 11.5034 6.59153 11.7012 6.63306C11.899 6.67459 12.0998 6.51581 12.1496 6.27842Z" fill="black"/>
<path id="Vector_9" d="M10.9356 7.79356C10.9543 7.79758 10.9719 7.80588 10.9868 7.81782C11.0018 7.82976 11.0138 7.84501 11.0219 7.86237C11.03 7.87973 11.034 7.89873 11.0335 7.91789C11.033 7.93704 11.0281 7.95582 11.0192 7.97276C10.9595 8.08871 10.8634 8.18187 10.7456 8.23791C10.6278 8.29396 10.4949 8.3098 10.3673 8.283C10.2396 8.2562 10.1243 8.18824 10.039 8.08956C9.95375 7.99088 9.90321 7.86693 9.89519 7.73676C9.89388 7.71765 9.897 7.69851 9.90431 7.68081C9.91162 7.66311 9.92291 7.64734 9.93731 7.63472C9.95171 7.6221 9.96882 7.61298 9.98733 7.60806C10.0058 7.60314 10.0252 7.60256 10.044 7.60636L10.9356 7.79356Z" fill="#5C2F17"/>
<path id="Vector_10" d="M9.45813 8.91882L11.0877 9.19988L10.9389 10.0623C10.9016 10.2784 10.7801 10.4709 10.6009 10.5973C10.4217 10.7238 10.1997 10.7739 9.98361 10.7366C9.76752 10.6993 9.57509 10.5777 9.44864 10.3986C9.3222 10.2194 9.2721 9.99738 9.30937 9.78129L9.45813 8.91882Z" fill="#FFB481"/>
</g>
<defs>
<clipPath id="clip0_80_3708">
<rect width="16" height="16" fill="white"/>
</clipPath>
</defs>
</svg>
