<svg width="20" height="20" viewBox="0 0 20 20" fill="none" xmlns="http://www.w3.org/2000/svg">
<g id="u1F35A,Steamed Rice,&#225;&#132;&#139;&#225;&#133;&#179;&#225;&#134;&#183;&#225;&#132;&#137;&#225;&#133;&#181;&#225;&#134;&#168;,Boiled Rice,&#225;&#132;&#135;&#225;&#133;&#161;&#225;&#134;&#184;" clip-path="url(#clip0_80_3708)">
<path id="Vector" d="M16.469 13.9545C16.706 13.8713 16.9045 13.7046 17.0275 13.4855C17.1504 13.2665 17.1894 13.0102 17.137 12.7645C17.3555 12.6409 17.5217 12.442 17.6045 12.205C17.6873 11.9679 17.681 11.7088 17.587 11.476C17.7812 11.3167 17.9107 11.092 17.9512 10.8441C17.9918 10.5962 17.9407 10.342 17.8075 10.129C17.9707 9.93826 18.059 9.69464 18.0559 9.44358C18.0527 9.19253 17.9584 8.95118 17.7905 8.76453C17.9184 8.5483 17.9633 8.29288 17.9166 8.046C17.87 7.79912 17.735 7.57767 17.537 7.42303C17.6253 7.18795 17.625 6.92878 17.5362 6.69389C17.4474 6.45899 17.2762 6.26444 17.0545 6.14653C17.1007 5.89965 17.0554 5.64439 16.9271 5.42844C16.7989 5.2125 16.5964 5.05062 16.3575 4.97303C16.3601 4.7218 16.2711 4.47822 16.1072 4.28776C15.9434 4.09731 15.7158 3.97299 15.467 3.93803C15.426 3.69032 15.2962 3.46601 15.1018 3.30701C14.9075 3.14801 14.6619 3.06519 14.411 3.07403C14.3276 2.83707 14.1607 2.63858 13.9416 2.51565C13.7226 2.39272 13.4662 2.35376 13.2205 2.40603C13.0971 2.18726 12.8982 2.02091 12.6611 1.93809C12.4239 1.85528 12.1648 1.86165 11.932 1.95603C11.7726 1.76185 11.548 1.63237 11.3001 1.59179C11.0522 1.55121 10.798 1.60231 10.585 1.73553C10.3944 1.572 10.1507 1.48352 9.89953 1.48665C9.64839 1.48978 9.40699 1.5843 9.22049 1.75253C9.00436 1.62452 8.74899 1.57964 8.50217 1.6263C8.25534 1.67296 8.03397 1.80796 7.87949 2.00603C7.64435 1.9176 7.38505 1.9178 7.15005 2.0066C6.91504 2.09539 6.7204 2.26671 6.60249 2.48853C6.35588 2.44258 6.10098 2.48784 5.88526 2.61589C5.66955 2.74394 5.50775 2.94604 5.42999 3.18453C5.17886 3.18186 4.93535 3.27072 4.74496 3.43452C4.55458 3.59831 4.43035 3.82582 4.39549 4.07453C4.14759 4.11546 3.9231 4.24529 3.76398 4.43974C3.60487 4.63419 3.52204 4.87994 3.53099 5.13103C3.2939 5.21428 3.09528 5.38108 2.97232 5.60022C2.84936 5.81936 2.81049 6.0758 2.86299 6.32153C2.64449 6.44509 2.47836 6.64387 2.39557 6.88084C2.31278 7.11781 2.31897 7.37679 2.41299 7.60953C2.21881 7.76891 2.08932 7.99355 2.04874 8.24146C2.00816 8.48936 2.05926 8.74357 2.19249 8.95653C2.02922 9.14739 1.94092 9.39109 1.94405 9.64223C1.94718 9.89337 2.04152 10.1348 2.20949 10.3215C2.08158 10.5377 2.03676 10.793 2.08342 11.0398C2.13007 11.2866 2.265 11.508 2.46299 11.6625C2.37456 11.8977 2.37476 12.157 2.46355 12.392C2.55235 12.627 2.72366 12.8216 2.94549 12.9395C2.89932 13.1864 2.9446 13.4417 3.07286 13.6576C3.20112 13.8736 3.4036 14.0355 3.64249 14.113C3.6394 14.3645 3.72799 14.6084 3.8917 14.7993C4.05541 14.9901 4.28302 15.1148 4.53199 15.15L16.469 13.9545Z" fill="white"/>
<path id="Vector_2" d="M7.69995 16.063H12.3V17.6955C12.3 17.9126 12.2137 18.1208 12.0602 18.2743C11.9067 18.4278 11.6985 18.514 11.4815 18.514H8.52045C8.4128 18.5143 8.30615 18.4933 8.20661 18.4523C8.10707 18.4112 8.01661 18.351 7.94039 18.275C7.86417 18.1989 7.80371 18.1086 7.76245 18.0092C7.72119 17.9097 7.69995 17.8031 7.69995 17.6955V16.063Z" fill="#767676"/>
<path id="Vector_3" fill-rule="evenodd" clip-rule="evenodd" d="M18.185 8.25C18.2978 8.24972 18.4094 8.27292 18.5127 8.31812C18.616 8.36332 18.7088 8.42953 18.7851 8.51254C18.8614 8.59555 18.9197 8.69354 18.9561 8.80027C18.9924 8.90701 19.0062 9.02015 18.9965 9.1325C18.7766 11.3659 17.7338 13.4377 16.071 14.9448C14.4082 16.452 12.2442 17.2867 10 17.2867C7.7558 17.2867 5.59183 16.452 3.929 14.9448C2.26618 13.4377 1.2234 11.3659 1.00351 9.1325C0.993794 9.02015 1.00757 8.90701 1.04397 8.80027C1.08036 8.69354 1.13858 8.59555 1.21491 8.51254C1.29124 8.42953 1.38402 8.36332 1.48733 8.31812C1.59065 8.27292 1.70224 8.24972 1.81501 8.25H18.185Z" fill="#BABABA"/>
</g>
<defs>
<clipPath id="clip0_80_3708">
<rect width="20" height="20" fill="white"/>
</clipPath>
</defs>
</svg>
