<svg width="40" height="40" viewBox="0 0 40 40" fill="none" xmlns="http://www.w3.org/2000/svg">
<g id="icon-calendar-grey-alarm,cal,calendar,month,&#225;&#132;&#131;&#225;&#133;&#161;&#225;&#134;&#175;&#225;&#132;&#133;&#225;&#133;&#167;&#225;&#134;&#168;">
<path id="Vector" d="M11.7083 1.76489C12.6283 1.76489 13.375 2.51156 13.375 3.43156V5.08656H10.0416V3.43156C10.0416 2.51156 10.7883 1.76489 11.7083 1.76489ZM28.375 1.76489C29.295 1.76489 30.0416 2.51156 30.0416 3.43156V5.08656H26.7083V3.43156C26.7083 2.51156 27.455 1.76489 28.375 1.76489Z" fill="#8B95A1"/>
<path id="Vector_2" opacity="0.35" d="M31.7517 35.0584H8.345C6.49667 35.0584 5 33.56 5 31.7134V8.43338C5 6.58505 6.49833 5.08838 8.345 5.08838H31.7517C33.6 5.08838 35.0967 6.58671 35.0967 8.43338V31.7134C35.0983 33.56 33.6 35.0584 31.7517 35.0584Z" fill="#849BB2"/>
<g id="Group">
<path id="Vector_3" fill-rule="evenodd" clip-rule="evenodd" d="M33.2332 35.0583C33.2332 36.5583 32.0666 37.725 30.5666 37.725C29.0666 37.725 27.8999 36.5583 27.8999 35.0583" fill="#FFAF31"/>
<path id="Vector_4" fill-rule="evenodd" clip-rule="evenodd" d="M22.7333 25.5584C22.7333 21.2251 26.2333 17.7251 30.5666 17.7251H31.3999C35.3999 18.0584 38.3999 21.7251 38.3999 25.7251V31.2251L39.8999 33.7251C40.0666 34.2251 40.0666 34.7251 39.5666 34.8918C39.3999 34.8918 39.2333 35.0584 39.0666 35.0584H22.0666C21.5666 35.0584 21.2333 34.7251 21.2333 34.2251C21.2333 34.0584 21.2333 33.8918 21.3999 33.7251L22.8999 31.2251C22.7333 31.2251 22.7333 25.5584 22.7333 25.5584Z" fill="#FFCD58"/>
</g>
</g>

</svg>
