<svg width="20" height="20" viewBox="0 0 20 20" fill="none" xmlns="http://www.w3.org/2000/svg">
<g id="icon-car-red,car,auto,automobile,transportation">
<path id="Vector" d="M17.0392 17.6858H15.9067C15.1783 17.6858 14.6125 17.12 14.6125 16.3917V11.9417H18.3333V16.3917C18.3333 17.12 17.7667 17.6858 17.0392 17.6858Z" fill="#6F7477"/>
<path id="Vector_2" d="M4.09498 17.6858H2.96165C2.23331 17.6858 1.66748 17.12 1.66748 16.3917V11.9417H5.38915V16.3917C5.38915 17.12 4.82248 17.6858 4.09498 17.6858Z" fill="#6F7477"/>
<path id="Vector_3" d="M18.3334 9.91916V14.1258C18.3334 15.0158 17.605 15.7442 16.715 15.7442H3.28502C2.39502 15.7442 1.66669 15.0158 1.66669 14.1258V9.91916C1.66669 9.02916 2.39502 8.22083 3.36502 8.22083H16.7142C17.6059 8.21999 18.3334 8.94833 18.3334 9.91916Z" fill="#EC4452"/>
<path id="Vector_4" d="M16.635 8.22L15.2592 3.77C15.0167 2.88 14.2075 2.31416 13.2367 2.31416H6.76418C5.87418 2.31416 5.06584 2.88 4.74168 3.77L3.36584 8.22" fill="#6F7477"/>
<g id="Group">
<path id="Vector_5" d="M15.0158 11.4292H4.98417C4.66 11.4292 4.33667 11.105 4.33667 10.7817C4.33667 10.4575 4.57917 10.1342 4.98417 10.1342H15.0967C15.4208 10.1342 15.7442 10.4583 15.7442 10.7817C15.745 11.1067 15.4208 11.4292 15.0158 11.4292Z" fill="white"/>
<path id="Vector_6" d="M15.0158 11.4292H4.98417C4.66 11.4292 4.33667 11.105 4.33667 10.7817C4.33667 10.4575 4.57917 10.1342 4.98417 10.1342H15.0967C15.4208 10.1342 15.7442 10.4583 15.7442 10.7817C15.745 11.1067 15.4208 11.4292 15.0158 11.4292Z" fill="white"/>
</g>
</g>

</svg>
