<svg xmlns="http://www.w3.org/2000/svg" width="20" height="20" viewBox="0 0 20 20" fill="none">
  <path d="M3 12.2c0-.7.3-1.35.78-1.78l.9-2.6C5.02 6.75 5.9 6.1 6.9 6.1h6.2c1 0 1.88.65 2.22 1.72l.9 2.6c.48.43.78 1.08.78 1.78v2.3c0 .5-.4.9-.9.9h-1c-.5 0-.9-.4-.9-.9v-.5H5.8v.5c0 .5-.4.9-.9.9h-1c-.5 0-.9-.4-.9-.9v-2.3Z" fill="#F04452"/>
  <path d="M5.7 8.1c.2-.6.55-.95 1.05-.95h6.5c.5 0 .85.35 1.05.95l.65 1.95H5.05l.65-1.95Z" fill="#FCE0E2"/>
  <circle cx="6.2" cy="12.5" r="1.15" fill="#3A2A2C"/>
  <circle cx="13.8" cy="12.5" r="1.15" fill="#3A2A2C"/>
</svg>
