<svg width="24" height="24" viewBox="0 0 24 24" fill="none" xmlns="http://www.w3.org/2000/svg">
<g id="u26A0,warning,&#225;&#132;&#128;&#225;&#133;&#181;&#225;&#132;&#146;&#225;&#133;&#169;,Exclamation,&#225;&#132;&#140;&#225;&#133;&#174;&#225;&#132;&#139;&#225;&#133;&#180;" clip-path="url(#clip0_80_3708)">
<path id="Vector" d="M10.0356 3.97918L1.68663 18.4404C1.48815 18.7851 1.38384 19.176 1.38416 19.5738C1.38447 19.9716 1.4894 20.3623 1.68842 20.7067C1.88744 21.0511 2.17354 21.3371 2.51802 21.536C2.8625 21.735 3.25324 21.8398 3.65103 21.84H20.349C20.7472 21.84 21.1383 21.7353 21.4831 21.5362C21.8279 21.3372 22.1143 21.0509 22.3134 20.7061C22.5125 20.3613 22.6173 19.9702 22.6173 19.572C22.6173 19.1739 22.5125 18.7828 22.3134 18.438L13.9644 3.97918C13.7653 3.63443 13.4789 3.34817 13.1341 3.14914C12.7893 2.95011 12.3982 2.84534 12 2.84534C11.6019 2.84534 11.2108 2.95011 10.866 3.14914C10.5211 3.34817 10.2348 3.63443 10.0356 3.97918Z" fill="#FFCD00"/>
<path id="Vector_2" d="M12 16.5282C11.7757 16.5282 11.5564 16.5947 11.37 16.7193C11.1835 16.8439 11.0381 17.021 10.9523 17.2282C10.8665 17.4354 10.844 17.6635 10.8878 17.8834C10.9315 18.1034 11.0395 18.3055 11.1981 18.4641C11.3567 18.6226 11.5588 18.7307 11.7787 18.7744C11.9987 18.8182 12.2267 18.7957 12.4339 18.7099C12.6411 18.624 12.8182 18.4787 12.9429 18.2922C13.0675 18.1057 13.134 17.8865 13.134 17.6622C13.134 17.3614 13.0145 17.073 12.8018 16.8603C12.5892 16.6477 12.3007 16.5282 12 16.5282Z" fill="#303D4C"/>
<g id="Group">
<path id="Vector_3" d="M12 9.36182V14.0868" stroke="#303D4C" stroke-width="1.92" stroke-miterlimit="10" stroke-linecap="round"/>
</g>
</g>
<defs>
<clipPath id="clip0_80_3708">
<rect width="24" height="24" fill="white"/>
</clipPath>
</defs>
</svg>
