<svg width="22" height="22" viewBox="0 0 22 22" fill="none" xmlns="http://www.w3.org/2000/svg">
<g id="Clip path group">
<mask id="mask0_80_3708" style="mask-type:luminance" maskUnits="userSpaceOnUse" x="0" y="0" width="22" height="22">
<g id="b">
<path id="Vector" d="M11.1289 4.0402L17.3389 10.2502L8.27687 19.3122L3.66487 20.5482L0.629865 21.3622C0.457187 21.4082 0.273103 21.3587 0.146751 21.2323C0.0203988 21.106 -0.0290926 20.9219 0.0168649 20.7492L0.829865 17.7122L2.06586 13.1022L11.1279 4.0402H11.1289ZM15.5829 0C15.8481 0 16.1025 0.105485 16.2899 0.293201L21.0859 5.0892C21.2736 5.2766 21.3791 5.53096 21.3791 5.7962C21.3791 6.06145 21.2736 6.3158 21.0859 6.5032L18.6119 8.9782L12.4009 2.7672L14.8759 0.293201C15.0633 0.105485 15.3176 0 15.5829 0Z" fill="white"/>
</g>
</mask>
<g mask="url(#mask0_80_3708)">
<g id="Group">
<path id="Vector_2" d="M0 0H21.3791V21.3791H0V0Z" fill="#8B95A1"/>
</g>
</g>
</g>

</svg>
