<svg width="24" height="24" viewBox="0 0 24 24" fill="none" xmlns="http://www.w3.org/2000/svg">
<g id="icon-search-mono (1) 1">
<path id="Vector" d="M21.8491 20.1508L17.242 15.5438C18.327 14.1058 18.9781 12.3238 18.9781 10.3878C18.9781 5.65183 15.124 1.79883 10.389 1.79883C5.65305 1.79983 1.80005 5.65283 1.80005 10.3888C1.80005 15.1238 5.65305 18.9778 10.389 18.9778C12.324 18.9778 14.107 18.3268 15.545 17.2418L20.1521 21.8488C20.386 22.0828 20.6931 22.1998 21 22.1998C21.307 22.1998 21.614 22.0828 21.8491 21.8478C22.3171 21.3798 22.3171 20.6198 21.8491 20.1508ZM4.20005 10.3888C4.20005 6.97583 6.97605 4.19983 10.389 4.19983C13.801 4.19983 16.577 6.97583 16.577 10.3878C16.577 13.7998 13.801 16.5758 10.389 16.5758C6.97605 16.5768 4.20005 13.8008 4.20005 10.3888Z" fill="#00132B" fill-opacity="0.58"/>
</g>

</svg>
