<svg width="24" height="24" viewBox="0 0 24 24" fill="none" xmlns="http://www.w3.org/2000/svg">
<g id="icon-x-circle-grey 1" clip-path="url(#clip0_80_3708)">
<path id="Subtract" d="M12 1C18.0751 1 23 5.92487 23 12C23 18.0751 18.0751 23 12 23C5.92487 23 1 18.0751 1 12C1 5.92487 5.92487 1 12 1ZM16.21 7.7998C15.82 7.40997 15.1898 7.40989 14.7998 7.7998L12.0098 10.5898L9.21973 7.7998C8.82971 7.41007 8.19948 7.40989 7.80957 7.7998C7.41974 8.18972 7.41987 8.81997 7.80957 9.20996L10.5996 12L7.80957 14.79C7.41982 15.18 7.41979 15.8103 7.80957 16.2002C8.1995 16.5901 8.82971 16.59 9.21973 16.2002L12.0098 13.4102L14.7998 16.2002C15.1898 16.5902 15.82 16.5901 16.21 16.2002C16.6 15.8102 16.6 15.18 16.21 14.79L13.4199 12L16.21 9.20996C16.5999 8.81996 16.5999 8.18979 16.21 7.7998Z" fill="#001936" fill-opacity="0.31"/>
</g>
<defs>
<clipPath id="clip0_80_3708">
<rect width="24" height="24" fill="white"/>
</clipPath>
</defs>
</svg>
