<svg xmlns="http://www.w3.org/2000/svg" width="20" height="20" viewBox="0 0 20 20" fill="none">
  <path d="M3.4 9.2c0-.66.53-1.2 1.2-1.2h10.8c.66 0 1.2.54 1.2 1.2 0 3.2-2.7 5.9-6.6 5.9S3.4 12.4 3.4 9.2Z" fill="#EDF1F5"/>
  <path d="M4 9.1c.9-1.7 2.9-2.85 6-2.85S15.1 7.4 16 9.1c.13.25-.05.55-.35.55H4.35C4.05 9.65 3.87 9.35 4 9.1Z" fill="#fff"/>
  <path d="M7.2 6.65c.35-.85.98-1.35 1.55-1.2M10.4 6.15c.2-1 .85-1.6 1.5-1.55" stroke="#C6D0DB" stroke-width="0.9" stroke-linecap="round"/>
  <path d="M3 15.1h14" stroke="#C6D0DB" stroke-width="1.3" stroke-linecap="round"/>
</svg>
