<svg width="20" height="20" viewBox="0 0 20 20" fill="none" xmlns="http://www.w3.org/2000/svg">
<g id="u1F3E1,&#225;&#132;&#140;&#225;&#133;&#165;&#225;&#134;&#188;&#225;&#132;&#139;&#225;&#133;&#175;&#225;&#134;&#171;,&#225;&#132;&#140;&#225;&#133;&#181;&#225;&#134;&#184;,&#225;&#132;&#140;&#225;&#133;&#165;&#225;&#134;&#188;&#225;&#132;&#139;&#225;&#133;&#175;&#225;&#134;&#171;&#225;&#132;&#139;&#225;&#133;&#181;&#225;&#132;&#139;&#225;&#133;&#181;&#225;&#134;&#187;&#225;&#132;&#130;&#225;&#133;&#179;&#225;&#134;&#171; &#225;&#132;&#140;&#225;&#133;&#181;&#225;&#134;&#184;,House" clip-path="url(#clip0_80_3708)">
<path id="Vector" d="M7.94999 13.2075H9.85999C10.0649 13.2075 10.2614 13.2889 10.4062 13.4338C10.5511 13.5787 10.6325 13.7751 10.6325 13.98V17.985H7.17499V13.98C7.17499 13.8784 7.19505 13.7777 7.23403 13.6838C7.27301 13.5899 7.33013 13.5047 7.40213 13.4329C7.47413 13.3611 7.55958 13.3043 7.6536 13.2656C7.74761 13.2269 7.84833 13.2072 7.94999 13.2075Z" fill="#6B7683"/>
<path id="Vector_2" d="M15.4955 7.33845L9.35501 2.45545C9.22652 2.35302 9.06708 2.29724 8.90276 2.29724C8.73844 2.29724 8.57899 2.35302 8.45051 2.45545L2.31001 7.33845C2.13852 7.47444 1.99998 7.64743 1.90474 7.84449C1.8095 8.04155 1.76002 8.25758 1.76001 8.47645V16.5674H7.45001V14.0174C7.45001 13.8246 7.5266 13.6397 7.66294 13.5034C7.79928 13.367 7.9842 13.2904 8.17701 13.2904H9.63001C9.72548 13.2904 9.82002 13.3093 9.90822 13.3458C9.99642 13.3823 10.0766 13.4359 10.1441 13.5034C10.2116 13.5709 10.2651 13.651 10.3017 13.7392C10.3382 13.8274 10.357 13.922 10.357 14.0174V16.5674H14.3C14.7627 16.5673 15.2064 16.3834 15.5336 16.0562C15.8607 15.7289 16.0445 15.2852 16.0445 14.8224V8.47645C16.0446 8.25766 15.9953 8.04168 15.9002 7.84463C15.8052 7.64757 15.6668 7.47454 15.4955 7.33845Z" fill="#D0D5DA"/>
<path id="Vector_3" d="M15.4955 7.25605L9.35499 2.37355C9.22631 2.27134 9.06682 2.2157 8.90249 2.2157C8.73816 2.2157 8.57867 2.27134 8.44999 2.37355L2.30949 7.25655C2.13815 7.39256 1.99971 7.56549 1.90448 7.76243C1.80925 7.95938 1.75969 8.17528 1.75949 8.39405V10.6L8.44999 5.28105C8.57855 5.17879 8.73797 5.12312 8.90224 5.12312C9.06651 5.12312 9.22593 5.17879 9.35449 5.28105L16.0445 10.6V8.39405C16.0445 8.17528 15.9951 7.95934 15.9001 7.7623C15.805 7.56526 15.6667 7.39221 15.4955 7.25605Z" fill="#EF4452"/>
<path id="Vector_4" d="M18.2505 16.5065H1.74951C1.47337 16.5065 1.24951 16.7303 1.24951 17.0065V17.9655C1.24951 18.2416 1.47337 18.4655 1.74951 18.4655H18.2505C18.5267 18.4655 18.7505 18.2416 18.7505 17.9655V17.0065C18.7505 16.7303 18.5267 16.5065 18.2505 16.5065Z" fill="#23B169"/>
<path id="Vector_5" d="M15.1625 12.2835L12.3225 15.825C12.273 15.8868 12.2421 15.9612 12.2331 16.0398C12.2241 16.1184 12.2375 16.1979 12.2717 16.2692C12.3059 16.3405 12.3596 16.4007 12.4265 16.4429C12.4934 16.485 12.5709 16.5074 12.65 16.5075H18.33C18.4091 16.5074 18.4866 16.485 18.5535 16.4429C18.6204 16.4007 18.6741 16.3405 18.7083 16.2692C18.7425 16.1979 18.7559 16.1184 18.7469 16.0398C18.7379 15.9612 18.7069 15.8868 18.6575 15.825L15.8175 12.2835C15.7781 12.2345 15.7283 12.1949 15.6716 12.1678C15.6149 12.1406 15.5528 12.1265 15.49 12.1265C15.4271 12.1265 15.3651 12.1406 15.3084 12.1678C15.2517 12.1949 15.2018 12.2345 15.1625 12.2835Z" fill="#0A9F60"/>
<path id="Vector_6" d="M15.2355 10.95L12.8795 13.8885C12.841 13.9365 12.8169 13.9943 12.8099 14.0554C12.8029 14.1164 12.8133 14.1782 12.8399 14.2336C12.8665 14.2891 12.9082 14.3358 12.9603 14.3685C13.0123 14.4012 13.0725 14.4186 13.134 14.4185H17.846C17.9075 14.4186 17.9677 14.4012 18.0197 14.3685C18.0717 14.3358 18.1135 14.2891 18.1401 14.2336C18.1667 14.1782 18.1771 14.1164 18.1701 14.0554C18.1631 13.9943 18.1389 13.9365 18.1005 13.8885L15.7445 10.95C15.7139 10.9119 15.6752 10.8811 15.6312 10.8599C15.5871 10.8387 15.5389 10.8278 15.49 10.8278C15.4411 10.8278 15.3929 10.8387 15.3488 10.8599C15.3048 10.8811 15.266 10.9119 15.2355 10.95Z" fill="#23B169"/>
<path id="Vector_7" d="M15.3 9.83L13.455 12.13C13.4265 12.1656 13.4086 12.2086 13.4034 12.254C13.3982 12.2993 13.406 12.3452 13.4257 12.3864C13.4455 12.4275 13.4764 12.4623 13.515 12.4866C13.5536 12.511 13.5984 12.5239 13.644 12.524H17.334C17.3797 12.524 17.4245 12.5111 17.4632 12.4868C17.5018 12.4625 17.5329 12.4278 17.5527 12.3866C17.5725 12.3454 17.5803 12.2995 17.5751 12.2541C17.5699 12.2087 17.5521 12.1657 17.5235 12.13L15.678 9.83C15.6553 9.80165 15.6266 9.77876 15.5939 9.76303C15.5611 9.7473 15.5253 9.73914 15.489 9.73914C15.4527 9.73914 15.4169 9.7473 15.3842 9.76303C15.3514 9.77876 15.3227 9.80165 15.3 9.83Z" fill="#68C76F"/>
</g>
<defs>
<clipPath id="clip0_80_3708">
<rect width="20" height="20" fill="white"/>
</clipPath>
</defs>
</svg>
