<svg preserveAspectRatio="none" width="100%" height="100%" overflow="visible" style="display: block;" viewBox="0 0 43.7065 43.7065" fill="none" xmlns="http://www.w3.org/2000/svg">
<g id="logos:google-calendar" clip-path="url(#clip0_0_393)">
<path id="Vector" d="M33.3549 10.3514H10.3516V33.3547H33.3549V10.3514Z" fill="var(--fill-0, white)"/>
<path id="Vector_2" d="M33.3549 43.706L43.7065 33.3544L38.5307 32.4713L33.3549 33.3544L32.4103 38.0887L33.3549 43.706Z" fill="var(--fill-0, #EA4335)"/>
<path id="Vector_3" d="M6.1482e-05 33.3545V40.2555C6.1482e-05 42.162 1.54413 43.7061 3.45048 43.7061H10.3517L11.4145 38.5303L10.3517 33.3545L4.71199 32.4715L6.1482e-05 33.3545Z" fill="var(--fill-0, #188038)"/>
<path id="Vector_4" d="M43.7065 10.3516V3.45039C43.7065 1.54404 42.1624 -2.61218e-05 40.2561 -2.61218e-05L33.3549 -2.61218e-05C32.7252 2.56705 32.4104 4.45621 32.4102 5.66747C32.4102 6.87862 32.7251 8.43999 33.3549 10.3516C35.6444 11.0072 37.3696 11.335 38.5307 11.335C39.6918 11.335 41.417 11.0073 43.7065 10.3516Z" fill="var(--fill-0, #1967D2)"/>
<path id="Vector_5" d="M43.7066 10.3513H33.3549V33.3546H43.7066V10.3513Z" fill="var(--fill-0, #FBBC04)"/>
<path id="Vector_6" d="M33.3549 33.3545H10.3516V43.7061H33.3549V33.3545Z" fill="var(--fill-0, #34A853)"/>
<path id="Vector_7" d="M33.3549 0H3.45059C1.54407 0 0 1.54407 0 3.45042V33.3549H10.3516V10.3516H33.3549V0Z" fill="var(--fill-0, #4285F4)"/>
<path id="Vector_8" d="M15.0703 28.1963C14.2105 27.6155 13.6152 26.7673 13.2903 25.6457L15.2859 24.8234C15.4669 25.5135 15.7832 26.0484 16.2348 26.4279C16.6833 26.8075 17.2296 26.9944 17.868 26.9944C18.5206 26.9944 19.0813 26.796 19.55 26.3991C20.0188 26.0023 20.2546 25.4963 20.2546 24.8839C20.2546 24.257 20.0073 23.7451 19.5128 23.3483C19.0182 22.9516 18.3971 22.7532 17.6553 22.7532H16.5022V20.7779H17.5373C18.1756 20.7779 18.7133 20.6052 19.1503 20.26C19.5874 19.9152 19.8059 19.4434 19.8059 18.8425C19.8059 18.3078 19.6105 17.8821 19.2195 17.563C18.8285 17.2438 18.3337 17.0828 17.7328 17.0828C17.1462 17.0828 16.6804 17.2381 16.3354 17.5514C15.9904 17.8656 15.7312 18.2624 15.5819 18.7045L13.6066 17.8821C13.8682 17.1403 14.3484 16.4847 15.0529 15.9182C15.7573 15.3518 16.6574 15.0672 17.75 15.0672C18.5581 15.0672 19.2856 15.2225 19.9297 15.5358C20.5737 15.8493 21.0797 16.2834 21.4449 16.8356C21.8103 17.3904 21.9913 18.0115 21.9913 18.7016C21.9913 19.4061 21.8217 20.0014 21.4825 20.4902C21.1433 20.979 20.7262 21.3527 20.2316 21.6144V21.7322C20.8702 21.9956 21.4249 22.428 21.8361 22.9832C22.253 23.5438 22.463 24.2138 22.463 24.996C22.463 25.778 22.2644 26.4768 21.8677 27.0892C21.4709 27.7017 20.9218 28.1847 20.2258 28.5356C19.5271 28.8864 18.7421 29.0648 17.8709 29.0648C16.8616 29.0676 15.9301 28.7772 15.0703 28.1963ZM27.3279 18.2932L25.1369 19.8776L24.0414 18.2157L27.9721 15.3804H29.4787V28.7541H27.3279V18.2932Z" fill="var(--fill-0, #4285F4)"/>
</g>
<defs>
<clipPath id="clip0_0_393">
<rect width="43.7065" height="43.7065" fill="white"/>
</clipPath>
</defs>
</svg>
