<svg preserveAspectRatio="none" width="100%" height="100%" overflow="visible" style="display: block;" viewBox="0 0 43.7104 43.7104" fill="none" xmlns="http://www.w3.org/2000/svg">
<g id="devicon:slack" clip-path="url(#clip0_0_252)">
<path id="Vector" d="M9.30726 27.5647C9.30726 30.0678 7.26585 32.1123 4.76241 32.1123C2.25897 32.1123 0.215165 30.0678 0.215165 27.5647C0.215165 25.0616 2.25965 23.0171 4.76275 23.0171H9.3076L9.30726 27.5647ZM11.5983 27.5647C11.5983 25.0616 13.6428 23.0171 16.1459 23.0171C18.649 23.0171 20.6935 25.0613 20.6935 27.5647V38.9482C20.6935 41.4513 18.6493 43.4958 16.1459 43.4958C13.6428 43.4958 11.5983 41.4513 11.5983 38.9482V27.5647Z" fill="var(--fill-0, #DE1C59)"/>
<path id="Vector_2" d="M16.1458 9.30717C13.6427 9.30717 11.5983 7.26575 11.5983 4.76231C11.5983 2.25887 13.6427 0.21507 16.1458 0.21507C18.6489 0.21507 20.6934 2.25955 20.6934 4.76265V9.30751L16.1458 9.30717ZM16.1458 11.5982C18.6489 11.5982 20.6934 13.6427 20.6934 16.1458C20.6934 18.6489 18.6493 20.6934 16.1458 20.6934H4.76238C2.25927 20.6934 0.215133 18.6492 0.215133 16.1458C0.215133 13.6427 2.25962 11.5982 4.76272 11.5982H16.1458Z" fill="var(--fill-0, #35C5F0)"/>
<path id="Vector_3" d="M34.4031 16.1459C34.4031 13.6427 36.4445 11.5983 38.948 11.5983C41.4514 11.5983 43.4955 13.6427 43.4955 16.1459C43.4955 18.649 41.4511 20.6934 38.948 20.6934H34.4031V16.1459ZM32.1121 16.1459C32.1121 18.649 30.0676 20.6934 27.5645 20.6934C25.0614 20.6934 23.0169 18.6493 23.0169 16.1459V4.76238C23.0169 2.25928 25.061 0.215135 27.5645 0.215135C30.0676 0.215135 32.1121 2.25962 32.1121 4.76272V16.1459Z" fill="var(--fill-0, #2EB57D)"/>
<path id="Vector_4" d="M27.5645 34.403C30.0676 34.403 32.1121 36.4444 32.1121 38.9479C32.1121 41.4513 30.0676 43.4954 27.5645 43.4954C25.0614 43.4954 23.0169 41.451 23.0169 38.9479V34.403H27.5645ZM27.5645 32.112C25.0614 32.112 23.0169 30.0675 23.0169 27.5644C23.0169 25.0613 25.061 23.0168 27.5645 23.0168H38.948C41.4511 23.0168 43.4955 25.0609 43.4955 27.5644C43.4955 30.0675 41.4511 32.112 38.948 32.112H27.5645Z" fill="var(--fill-0, #EBB02E)"/>
</g>
<defs>
<clipPath id="clip0_0_252">
<rect width="43.7104" height="43.7104" fill="white"/>
</clipPath>
</defs>
</svg>
